<?xml version="1.0" encoding="UTF-8" standalone="no"?>
<!-- Created with Inkscape (http://www.inkscape.org/) -->

<svg
   xmlns:dc="http://purl.org/dc/elements/1.1/"
   xmlns:cc="http://creativecommons.org/ns#"
   xmlns:rdf="http://www.w3.org/1999/02/22-rdf-syntax-ns#"
   xmlns:svg="http://www.w3.org/2000/svg"
   xmlns="http://www.w3.org/2000/svg"
   xmlns:sodipodi="http://sodipodi.sourceforge.net/DTD/sodipodi-0.dtd"
   xmlns:inkscape="http://www.inkscape.org/namespaces/inkscape"
   width="1000px"
   height="1000px"
   viewBox="0 0 1000 1000"
   version="1.1"
   id="SVGRoot"
   inkscape:version="0.92.4 (5da689c313, 2019-01-14)"
   sodipodi:docname="Recetario1000icon.svg">
  <defs
     id="defs9441" />
  <sodipodi:namedview
     id="base"
     pagecolor="#ffffff"
     bordercolor="#666666"
     borderopacity="1.0"
     inkscape:pageopacity="0.0"
     inkscape:pageshadow="2"
     inkscape:zoom="0.49497475"
     inkscape:cx="530"
     inkscape:cy="500"
     inkscape:document-units="px"
     inkscape:current-layer="layer1"
     showgrid="false"
     inkscape:window-width="1920"
     inkscape:window-height="1001"
     inkscape:window-x="-9"
     inkscape:window-y="-9"
     inkscape:window-maximized="1" />
  <metadata
     id="metadata9444">
    <rdf:RDF>
      <cc:Work
         rdf:about="">
        <dc:format>image/svg+xml</dc:format>
        <dc:type
           rdf:resource="http://purl.org/dc/dcmitype/StillImage" />
        <dc:title></dc:title>
      </cc:Work>
    </rdf:RDF>
  </metadata>
  <g
     inkscape:label="Capa 1"
     inkscape:groupmode="layer"
     id="layer1">
    <path
       style="color:#000000;font-style:normal;font-variant:normal;font-weight:normal;font-stretch:normal;font-size:medium;line-height:normal;font-family:sans-serif;font-variant-ligatures:normal;font-variant-position:normal;font-variant-caps:normal;font-variant-numeric:normal;font-variant-alternates:normal;font-feature-settings:normal;text-indent:0;text-align:start;text-decoration:none;text-decoration-line:none;text-decoration-style:solid;text-decoration-color:#000000;letter-spacing:normal;word-spacing:normal;text-transform:none;writing-mode:lr-tb;direction:ltr;text-orientation:mixed;dominant-baseline:auto;baseline-shift:baseline;text-anchor:start;white-space:normal;shape-padding:0;clip-rule:nonzero;display:inline;overflow:visible;visibility:visible;opacity:1;isolation:auto;mix-blend-mode:normal;color-interpolation:sRGB;color-interpolation-filters:linearRGB;solid-color:#000000;solid-opacity:1;vector-effect:none;fill:#000000;fill-opacity:1;fill-rule:nonzero;stroke:#000000;stroke-width:30.23622131;stroke-linecap:butt;stroke-linejoin:round;stroke-miterlimit:4;stroke-dasharray:none;stroke-dashoffset:0;stroke-opacity:1;color-rendering:auto;image-rendering:auto;shape-rendering:auto;text-rendering:auto;enable-background:accumulate"
       d="m 708.09524,15.801054 c -1.48355,0 -1.56607,0.407159 -1.89969,0.623191 -0.33332,0.216022 -0.62147,0.439019 -0.94974,0.708797 -0.65655,0.538575 -1.4376,1.247283 -2.3818,2.147612 -1.8885,1.800679 -4.40739,4.349287 -7.41145,7.487927 -6.00874,6.276884 -13.94786,14.905366 -22.39267,24.39656 -8.38175,9.42021 -16.6182,17.991538 -23.0906,24.160515 -3.23626,3.084389 -6.03918,5.57097 -8.13827,7.230285 -1.0494,0.829266 -1.93147,1.449663 -2.53293,1.810932 -0.60145,0.361368 -1.11143,0.307613 -0.30223,0.307613 0.76359,0 0.26521,0.04973 -0.33825,-0.300638 -0.60346,-0.34843 -1.48322,-0.948725 -2.53292,-1.746527 -2.09939,-1.595207 -4.90051,-3.985818 -8.13807,-6.951046 C 621.51171,69.745532 613.26045,61.503107 604.8744,52.446256 L 574.21406,19.337699 a 2.763376,2.7491934 0 0 0 -4.79224,1.854038 l -0.25319,86.089773 -0.07,22.97925 -262.63832,0.90193 h 0.1281 c 0,0 -19.72726,-0.92681 -30.18539,0.46591 -7.2543,0.96563 -14.6418,2.54113 -21.55804,5.50497 -7.19686,3.08358 -13.81117,7.43834 -19.73727,12.3701 -5.69921,4.7429 -11.01564,10.22527 -15.1685,16.5365 -3.62675,5.51184 -5.73774,11.63164 -7.82152,17.38827 -1.4415,3.98243 -3.18752,11.36096 -3.18752,11.36096 a 2.763376,2.7491934 0 0 0 -0.08,0.63712 l -0.88467,704.61082 a 2.763376,2.7491934 0 0 0 0.03,0.37232 c 0,0 1.84821,13.58452 3.59783,20.64567 1.28027,5.167 2.73977,10.4655 5.04413,15.52706 2.26541,4.97616 5.27419,9.42559 8.21011,13.69434 3.36545,4.89352 6.76294,10.20218 11.4699,14.61079 5.59144,5.23708 12.09097,9.4441 18.81627,12.84277 5.81281,2.93755 16.90242,5.94887 16.90242,5.94887 a 2.763376,2.7491934 0 0 0 0.25218,0.0597 l 9.74989,1.7753 a 2.763376,2.7491934 0 0 0 0.49638,0.0497 h 490.21271 a 2.763376,2.7491934 0 0 0 0.41029,-0.0199 c 0,0 4.175,-0.62717 9.29678,-1.66808 5.12177,-1.0417 11.14318,-2.44397 15.34819,-4.29513 6.49875,-2.86099 11.89234,-7.31211 17.01759,-11.43949 3.78165,-3.04567 7.31873,-6.42104 10.53438,-10.05804 4.35449,-4.92508 8.37932,-10.22458 11.81507,-15.89221 2.51206,-4.14382 4.91446,-8.56627 6.46884,-13.41519 1.83322,-5.71871 2.77742,-16.04971 2.77742,-16.04971 a 2.763376,2.7491934 0 0 0 0,-0.0597 l 1.77003,-22.12738 a 2.763376,2.7491934 0 0 0 0,-0.22101 l 0.44635,-596.50117 c 0.0297,-0.16426 0.26725,-2.38882 0.40226,-5.34748 0.14215,-3.06557 0.21416,-6.65369 -0.47428,-9.56386 -0.79066,-3.34431 -2.70897,-5.69262 -3.79245,-7.73142 -1.16232,-2.18654 -2.19369,-4.99049 -4.30288,-7.54527 -2.74097,-3.32072 -6.13036,-5.86395 -9.46933,-8.06771 -3.37236,-2.22615 -7.10428,-4.52151 -11.44818,-5.67689 -3.04249,-0.80836 -6.96263,-0.9746 -10.30407,-1.03075 -3.34116,-0.0597 -6.04429,0.0597 -6.04429,0.0597 h 0.1161 l -533.43663,0.888 c -0.17813,-0.0298 -7.17754,-0.91986 -10.1671,-1.68242 -3.52698,-0.89894 -6.8616,-1.71785 -9.47678,-3.24984 -2.70135,-1.58395 -5.15301,-3.87084 -7.22268,-6.43567 -3.19603,-3.96083 -5.73616,-8.57931 -7.54102,-13.40155 -1.67037,-4.46197 -2.5055,-9.36496 -2.94293,-14.32418 -0.44834,-5.08985 -0.32925,-10.2661 0.42432,-15.29104 0.62648,-4.18204 1.73672,-8.31658 3.36025,-12.17686 1.97379,-4.69264 4.47589,-9.19055 7.59125,-13.06438 2.94964,-3.66795 6.57319,-6.90804 10.50547,-9.6427 5.74806,-3.99757 11.82296,-7.58788 18.21211,-9.34216 2.81192,-0.77152 7.98115,-1.16027 12.26139,-1.25982 4.28015,-0.0996 7.73506,0.0298 7.73506,0.0298 a 2.763376,2.7491934 0 0 0 0.09,0 l 276.31728,0.69487 -0.12109,42.74409 a 2.763376,2.7491934 0 0 0 2.7632,2.75617 h 69.37259 69.36511 a 2.763376,2.7491934 0 0 0 2.76316,-2.749 V 151.0139 l 109.19997,0.27875 a 2.763376,2.7491934 0 0 0 1.97873,-0.8233 c 0,0 0.81157,-0.81632 1.70545,-1.89683 0.89368,-1.08103 1.92297,-2.29207 2.4968,-4.05203 0.71458,-2.19192 0.90774,-4.72468 -0.0495,-7.15861 -0.88269,-2.24508 -2.53177,-3.76232 -3.95748,-5.08984 -1.426,-1.32732 -2.71294,-2.29774 -2.71294,-2.29774 a 2.763376,2.7491934 0 0 0 -1.67642,-0.55848 l -106.98379,0.37232 v -23.82125 c 0,-24.059473 -0.26121,-45.92703 -0.68348,-61.807899 -0.21119,-7.940479 -0.45933,-14.376549 -0.74054,-18.877255 -0.14215,-2.250546 -0.28727,-4.0112 -0.45338,-5.297496 -0.0802,-0.644095 -0.16216,-1.152503 -0.29519,-1.667984 -0.0703,-0.25783 -0.1261,-0.50074 -0.33827,-0.908899 -0.10609,-0.205075 -0.24725,-0.464897 -0.59751,-0.801388 -0.35026,-0.336482 -1.06832,-0.801378 -1.97884,-0.801378 z m -2.00756,8.053568 c 0.0505,0.650069 0.10401,0.984569 0.15205,1.768134 0.27419,4.377254 0.5244,10.773399 0.7346,18.676846 0.42029,15.807498 0.68348,37.644799 0.68348,61.664758 v 26.5586 a 2.763376,2.7491934 0 0 0 2.7702,2.7487 l 108.73936,-0.37929 c 0.3873,0.30562 0.76253,0.58337 1.61193,1.3745 1.19749,1.11467 2.4343,2.70002 2.58328,3.07822 0.33926,0.86211 0.33223,2.28231 -0.0505,3.4578 -0.0505,0.14833 -0.78769,1.37908 -1.5112,2.25483 -0.33728,0.40816 -0.39325,0.44598 -0.64049,0.71577 l -110.73276,-0.28671 a 2.763376,2.7491934 0 0 0 -2.77039,2.749 v 42.40075 h -66.60148 -66.60219 l 0.12108,-42.73713 a 2.763376,2.7491934 0 0 0 -2.75648,-2.75626 l -278.98641,-0.70185 h -0.0901 c -0.08,0 -3.5656,-0.12344 -7.97264,-0.0298 -4.45868,0.10552 -9.70936,0.3763 -13.60681,1.44608 -7.3726,2.02417 -13.93887,5.98889 -19.90289,10.13658 -4.30447,2.99349 -8.32162,6.56927 -11.65694,10.71666 -3.51667,4.37337 -6.24043,9.31518 -8.36844,14.37446 -1.81849,4.32369 -3.04592,8.89727 -3.73453,13.49393 -0.82263,5.48525 -0.94472,11.08381 -0.46036,16.57961 0.46236,5.24405 1.34553,10.63145 3.26668,15.7634 1.99361,5.32558 4.80054,10.45056 8.41157,14.92568 2.39542,2.96811 5.29382,5.7184 8.72832,7.73132 3.59082,2.10391 7.47047,2.95866 10.91558,3.8369 3.93859,1.00457 10.98063,1.83283 10.98063,1.83283 a 2.763376,2.7491934 0 0 0 0.34526,0.0299 l 533.65232,-0.88799 a 2.763376,2.7491934 0 0 0 0.1161,0 c 0,0 2.5492,-0.10951 5.71343,-0.0597 3.16404,0.0497 7.00295,0.33051 8.96564,0.85215 3.31718,0.88202 6.58018,2.80675 9.82178,4.94659 3.13154,2.06677 6.06132,4.32399 8.25332,6.97962 1.34161,1.62516 2.30305,4.02415 3.68418,6.62182 1.39411,2.62357 2.87173,4.62803 3.29549,6.42124 0.3983,1.68421 0.46933,5.18661 0.33827,8.05337 -0.13214,2.86707 -0.39533,5.17576 -0.39533,5.17576 a 2.763376,2.7491934 0 0 0 -0.0297,0.30064 l -0.44635,596.51531 -1.7628,22.01987 c 0,0.0797 -1.17945,10.63145 -2.54018,14.87591 -1.34617,4.20044 -3.52064,8.26343 -5.93622,12.24815 -3.23615,5.33791 -7.0601,10.37848 -11.23223,15.0976 -3.00901,3.40325 -6.31926,6.56359 -9.85793,9.41374 -5.14594,4.14431 -10.20561,8.23375 -15.78008,10.68789 -3.3035,1.45434 -9.25032,2.9271 -14.21826,3.93733 -4.88088,0.99154 -8.71206,1.56137 -8.85063,1.58188 H 282.76719 l -9.32536,-1.68939 c -0.10108,-0.0199 -11.31668,-3.26328 -15.8231,-5.5409 -6.36432,-3.21599 -12.42642,-7.15533 -17.53579,-11.94064 -4.04447,-3.78802 -7.26491,-8.73211 -10.69251,-13.71564 -2.91621,-4.24027 -5.72964,-8.43565 -7.74237,-12.8569 -2.06557,-4.53683 -3.45032,-9.50683 -4.70597,-14.57516 -1.55127,-6.26056 -3.4371,-19.6855 -3.46833,-19.9082 l 0.88568,-704.0166 c 0.09,-0.34644 1.80457,-7.37135 2.94293,-10.51607 2.09758,-5.79486 4.11802,-11.48897 7.24589,-16.24293 3.77136,-5.73154 8.7025,-10.85115 14.08888,-15.33383 5.59945,-4.65959 11.78734,-8.70872 18.37764,-11.53259 6.25554,-2.68051 13.15116,-4.18592 20.10423,-5.11114 9.16885,-1.2203 29.21406,-0.42209 29.21406,-0.42209 a 2.763376,2.7491934 0 0 0 0.12909,0 l 265.3872,-0.90891 a 2.763376,2.7491934 0 0 0 2.74849,-2.74182 l 0.08,-25.70676 0.22917,-79.081482 25.88963,27.954405 c 8.47713,9.155307 16.79102,17.471697 23.42176,23.544804 3.31511,3.036598 6.2063,5.505168 8.53386,7.273292 1.16369,0.884012 2.17775,1.595405 3.10856,2.133276 0.93071,0.537575 1.59641,1.044982 3.11546,1.044982 1.56499,0 2.22709,-0.535583 3.1591,-1.095161 0.93171,-0.559468 1.95268,-1.300027 3.11556,-2.21919 2.32607,-1.838602 5.20655,-4.409303 8.51966,-7.566866 6.62583,-6.314719 14.94383,-14.962608 23.41425,-24.482562 8.40747,-9.448881 16.30814,-18.04033 22.24881,-24.246241 2.72522,-2.847354 4.89662,-5.029314 6.63396,-6.70764 z m -163.498,338.102728 c -8.09003,-0.36038 -16.24291,0.10951 -24.23467,1.34573 -8.80518,1.36733 -17.61786,3.46875 -26.01913,6.72198 -10.6757,4.13435 -21.01804,9.4669 -30.42287,16.08544 -7.86535,5.53494 -14.70364,12.29973 -21.06136,19.2211 -4.33849,4.7226 -8.22874,9.85505 -11.69286,15.20482 -3.17512,4.90348 -5.93401,10.07465 -8.2894,15.39824 -1.06079,2.39799 -2.27402,5.41468 -3.27388,8.18966 -0.99975,2.77458 -1.78955,5.06923 -2.01472,6.97952 -0.69152,5.87062 0.63848,11.30959 0.85665,16.21446 0.20916,4.70617 1.09453,8.94396 0.47436,12.55607 -0.57644,3.35665 -1.5689,6.62322 -3.35305,8.78357 -1.76072,2.1292 -4.33828,3.89604 -6.67025,4.29553 -1.44249,0.24689 -3.25277,0.38327 -4.6052,0.19213 -1.35241,-0.19014 -1.93275,-0.58137 -2.14422,-0.97361 a 2.763376,2.7491934 0 0 0 -0.1441,-0.2439 c 0,0 -0.57745,-0.8402 -1.22323,-1.92571 -0.64549,-1.0858 -1.34343,-2.5052 -1.48243,-2.98533 -1.01747,-3.51485 -0.9257,-7.6053 -0.76959,-11.8402 0.17314,-4.76221 1.4365,-9.73449 2.16585,-15.06196 0.10808,-0.79043 1.1823,-3.26935 1.96449,-5.56937 0.39129,-1.15002 0.78059,-2.28301 0.63348,-3.79409 -0.07,-0.7556 -0.34727,-1.68211 -1.02178,-2.44109 -0.67451,-0.75858 -1.65295,-1.1957 -2.52561,-1.34573 -10.09576,-1.73786 -19.77089,2.66428 -28.20669,5.83438 -9.4961,3.56851 -18.63092,8.53421 -26.62358,14.87561 -8.73402,6.92973 -16.52613,15.32208 -22.54359,24.7618 -5.89757,9.25108 -9.94154,19.64728 -12.62838,30.13786 -2.14912,8.39125 -2.95413,17.13511 -2.71985,25.72088 0.23218,8.51539 1.57679,17.07837 4.06538,25.24871 2.41232,7.91938 5.90367,15.60969 10.41209,22.59259 4.88841,7.57075 11.03047,14.25182 17.55731,20.24458 5.34666,4.90976 16.29886,11.90949 16.47059,12.01939 0,0.002 0,0 0,0 7.61126,5.5429 16.74379,8.61653 25.60901,10.53727 8.09023,1.75329 16.23361,1.1757 23.91824,0.93777 7.32655,-0.22598 14.99776,-0.37233 22.52938,-2.27663 7.58785,-1.91845 13.01336,-7.01774 18.57878,-7.82421 1.55178,-0.22598 4.28615,1.1972 5.82842,2.99947 0.99476,1.16176 1.53266,3.44178 1.53266,5.66943 0,2.1499 -0.57543,4.40344 -1.62603,5.77714 -2.09579,2.73626 -5.06354,5.03778 -8.26767,6.66474 -4.97687,2.52631 -10.42901,4.30627 -15.97421,5.44753 -8.20062,1.68828 -16.86859,1.98803 -25.65235,3.02813 a 2.763376,2.7491934 0 0 0 -2.08678,4.07333 c 3.38837,6.0304 6.91214,11.90231 10.05943,17.88941 3.72922,7.0942 7.57154,14.00374 10.39768,21.18962 3.44001,8.74685 5.90328,17.95899 8.23164,27.25287 2.14783,8.57064 3.8311,17.27467 5.20965,26.03596 1.37314,8.72713 2.13652,17.62311 3.05802,26.57294 1.16628,11.3271 2.90631,22.45501 3.05102,33.48087 0.06,4.12868 -0.87768,8.62221 -0.87768,13.53704 0,0.35241 -0.10808,1.32094 0,2.45552 0.05,0.56745 0.1261,1.22777 0.61848,2.06161 0.10408,0.17421 0.46335,0.19213 0.63348,0.36535 a 2.763376,2.7491934 0 0 0 2.38901,1.3743 h 186.43714 c 2.18316,0 3.70381,-1.35838 4.62681,-2.64875 0.9227,-1.29008 1.4595,-2.70071 1.62614,-4.18045 2.63859,-23.43419 1.29007,-46.91736 4.81405,-69.52489 2.04414,-13.11364 5.9435,-26.03258 9.57735,-39.1077 1.8482,-6.6501 3.60423,-13.23152 6.05129,-19.43562 3.1645,-8.02262 6.89873,-15.84325 11.22511,-23.28 2.44495,-4.20204 5.65839,-8.16955 8.66357,-12.52042 a 2.763376,2.7491934 0 0 0 -2.02923,-4.29533 c -8.27728,-0.75161 -16.35131,-0.4868 -23.77433,-2.13327 l -14.83705,-3.29296 c -2.51151,-3.01847 -5.2752,-5.29153 -5.9293,-7.50215 -0.90468,-3.05751 -0.76658,-6.86493 0.61947,-9.22748 1.03429,-1.76374 3.62976,-3.30121 6.21682,-3.98731 3.05882,-0.81135 7.07566,0.34743 11.64963,0.94473 4.93174,0.64609 10.09936,2.46648 15.86642,3.07125 8.50236,0.89098 17.29622,1.51904 26.06937,0.43603 8.04202,-0.99152 16.12141,-2.99429 23.60873,-6.35682 6.95659,-3.12391 12.87309,-7.77723 18.54295,-12.15527 5.3921,-4.16332 10.70674,-8.67786 15.3052,-13.95217 4.26257,-4.88924 7.68554,-10.33748 10.83641,-15.74906 2.85686,-4.90617 5.90788,-10.06958 7.70644,-15.90655 2.20389,-7.15204 2.78594,-14.55903 3.18771,-21.67632 0.51142,-9.09816 0.77858,-18.5135 -0.91369,-27.79692 -1.36261,-7.46722 -4.0918,-14.57406 -7.23127,-21.2611 -2.70472,-5.76132 -6.06083,-11.25454 -9.9658,-16.28604 -4.26425,-5.49372 -9.21526,-10.3968 -14.42005,-14.8541 -4.36865,-3.74201 -9.11649,-6.99316 -13.98102,-9.90771 -5.48977,-3.28886 -11.25016,-5.97475 -16.98143,-8.48283 -4.02147,-1.76016 -8.30711,-4.08428 -13.33339,-5.00383 -3.05932,-0.55948 -7.00141,-0.52165 -10.35445,-0.4012 -3.21764,0.11549 -5.60064,0.33251 -5.8067,0.35042 -2.45297,0 -4.85588,0.93081 -5.87906,2.90649 -1.02307,1.9757 -0.60646,3.8154 -0.16512,5.4119 0.44033,1.59639 1.08712,3.11495 1.5903,4.45987 0.50338,1.34474 0.80661,2.55299 0.81262,2.9279 0.1371,7.70365 3.36845,14.30219 2.19446,19.69347 -0.6495,2.98224 -2.2383,6.02193 -4.28845,7.46633 -0.60145,0.42407 -1.9797,0.68391 -3.25968,0.52263 -2.24089,-0.28372 -4.70906,-1.69605 -7.02992,-3.42186 -1.46571,-1.08968 -2.6379,-2.23741 -3.04391,-3.22138 -1.8491,-4.48198 -0.6635,-10.49087 -0.66951,-16.91599 -0.002,-3.0148 0.1191,-6.01496 0.42433,-8.96984 v -0.0299 c 0.48236,-4.45161 3.73913,-9.92742 2.60487,-16.44333 -2.22449,-12.78363 -11.51553,-24.32776 -18.05329,-32.47889 -6.87701,-8.57442 -16.26663,-14.95792 -20.53626,-18.82728 -4.7447,-4.3 -9.91803,-8.08692 -15.30491,-11.43939 -6.40305,-3.98473 -13.16658,-7.44582 -20.16209,-10.28691 -6.11753,-2.48479 -12.46374,-4.38243 -18.85959,-5.82731 -7.01922,-1.58535 -14.23029,-2.80873 -21.54343,-3.13535 z m -0.24519,5.49063 c 6.85901,0.30662 13.74742,1.45942 20.5649,2.99948 6.14485,1.38803 12.20385,3.20982 17.99614,5.5624 6.69478,2.71904 13.17308,6.03638 19.31304,9.85734 5.1509,3.20554 10.06223,6.8049 14.52061,10.84528 4.93354,4.47094 13.76343,10.49904 19.93181,18.19015 6.50823,8.1141 15.06552,19.26779 16.93124,29.98754 0.68451,3.93286 -2.00102,8.83594 -2.65542,14.93284 a 2.763376,2.7491934 0 0 0 0,0.0298 c -0.33025,3.19131 -0.45534,6.38321 -0.45334,9.54973 0,5.56091 -1.63664,12.39907 1.08662,18.9989 1.09243,2.64865 3.1604,4.28467 4.84968,5.5409 2.61028,1.94076 5.77628,3.97806 9.6348,4.46686 2.22679,0.28173 4.86539,0.12344 7.15253,-1.48899 3.73083,-2.62844 5.63657,-6.86712 6.49042,-10.78803 1.72521,-7.92227 -1.96079,-15.04156 -2.06527,-20.96046 -0.03,-1.78017 -0.60546,-3.26776 -1.15828,-4.74629 -0.55342,-1.47842 -1.13836,-2.91117 -1.43909,-4.00165 -0.30123,-1.09048 -0.1341,-1.66877 -0.25319,-1.43881 -0.11809,0.23096 -0.46335,0.0797 0.96473,0.0797 a 2.763376,2.7491934 0 0 0 0.24519,0 c 0,0 2.56905,-0.22797 5.76347,-0.34346 3.19462,-0.11548 7.07636,-0.0696 9.15273,0.30761 3.89521,0.71279 7.82446,2.75588 12.1103,4.63151 5.64816,2.47195 11.19162,5.06725 16.35559,8.16089 4.66761,2.79649 9.15622,5.87829 13.22543,9.36346 4.99846,4.28079 9.67924,8.93649 13.64999,14.05252 3.65238,4.70597 6.80037,9.85405 9.33254,15.24793 3.02318,6.43944 5.56663,13.11922 6.80711,19.91536 1.55656,8.536 1.34012,17.52226 0.83464,26.50833 -0.39632,7.02471 -0.98273,13.9878 -2.95008,20.3736 -1.54774,5.02264 -4.34755,9.84559 -7.21007,14.76091 -3.08687,5.30179 -6.33937,10.44778 -10.22493,14.90438 -4.23632,4.85948 -9.26785,9.15212 -14.52068,13.20782 -5.68709,4.39119 -11.29117,8.73381 -17.42748,11.48958 -6.87605,3.08797 -14.42311,4.97764 -22.0115,5.91312 -8.06311,0.99452 -16.44796,0.43305 -24.81751,-0.44399 -4.89922,-0.51369 -10.01989,-2.30918 -15.72222,-3.05662 -3.85492,-0.50372 -8.63624,-2.17737 -13.79386,-0.80934 -3.52757,0.93478 -7.40751,2.84138 -9.57005,6.52875 -2.46737,4.20761 -2.39262,9.29875 -1.13687,13.5439 1.46262,4.9446 5.52539,7.53999 7.46897,10.08651 a 2.763376,2.7491934 0 0 0 1.59741,1.02378 l 15.79417,3.50051 c 6.74402,1.49615 13.324,1.46787 19.7806,1.81839 -2.121,2.90401 -4.30646,5.72896 -6.21701,9.01275 -4.47699,7.69569 -8.33372,15.7639 -11.59189,24.02433 -2.60297,6.59954 -4.39443,13.37737 -6.23152,19.98695 -3.61094,12.99339 -7.59116,26.11261 -9.71396,39.73049 -3.64377,23.37725 -2.27404,46.94077 -4.84248,69.75376 -0.04,0.37829 -0.32925,1.16126 -0.64049,1.5964 -0.31123,0.43504 -0.43233,0.34345 -0.12108,0.34345 H 442.57255 c 0,-0.2867 0,-0.42707 0,-0.75857 0,-4.15377 0.94972,-8.67757 0.87767,-13.61578 -0.15211,-11.54882 -1.93377,-22.8364 -3.07994,-33.96769 -0.91469,-8.88463 -1.68027,-17.88194 -3.09414,-26.86641 -1.39836,-8.88931 -3.11446,-17.75353 -5.31023,-26.51551 -2.34157,-9.34603 -4.84687,-18.79541 -8.44049,-27.93309 -3.00619,-7.64412 -6.97019,-14.7214 -10.65638,-21.73358 -2.59747,-4.9407 -5.38569,-9.67933 -8.10966,-14.43916 7.22729,-0.70184 14.57916,-1.08999 22.01129,-2.61998 5.95812,-1.22647 11.8773,-3.14592 17.37017,-5.93453 3.83871,-1.94891 7.44865,-4.70159 10.153,-8.23237 2.09399,-2.73646 2.75569,-6.08127 2.75569,-9.10592 0,-2.94632 -0.47737,-6.46375 -2.84926,-9.23465 -2.45196,-2.86518 -6.30378,-5.53245 -10.83652,-4.87502 -7.92571,1.14872 -13.51994,6.51611 -19.14741,7.9389 -6.7141,1.69834 -13.9806,1.87743 -21.34198,2.1047 -7.81923,0.24092 -15.50475,0.72275 -22.57272,-0.80934 -8.43299,-1.82706 -16.83306,-4.73286 -23.52233,-9.60667 a 2.763376,2.7491934 0 0 0 -0.1291,-0.0896 c 0,0 -11.38793,-7.43396 -15.85912,-11.53975 -6.29137,-5.77673 -12.10958,-12.1269 -16.65763,-19.17082 -4.21199,-6.52367 -7.50049,-13.75545 -9.77161,-21.21122 -2.33767,-7.67459 -3.60753,-15.76897 -3.8281,-23.80951 -0.22117,-8.14347 0.54441,-16.38868 2.54733,-24.21059 2.57465,-10.05246 6.43247,-19.91308 11.93735,-28.54862 5.65498,-8.87089 13.04348,-16.84283 21.32767,-23.41599 7.48547,-5.9391 16.12813,-10.64637 25.13416,-14.03091 8.18109,-3.07413 16.45137,-6.24583 24.00439,-5.44752 -0.04,0.1543 -0.03,0.12344 -0.07,0.29367 -0.59646,1.75419 -1.8577,4.02804 -2.20897,6.59316 -0.67151,4.9012 -2.01504,10.0439 -2.21618,15.59864 -0.15712,4.24744 -0.35727,8.92674 0.98574,13.56551 0.46036,1.59132 1.29668,3.0159 2.03644,4.25949 0.6585,1.1074 1.12906,1.78684 1.25186,1.96852 1.35272,2.50788 3.97691,3.49672 6.24593,3.81569 2.26902,0.31856 4.50121,0.0996 6.31049,-0.21603 4.14474,-0.70979 7.57804,-3.28966 10.00178,-6.22084 2.81223,-3.40056 3.88955,-7.6046 4.53323,-11.35359 0.86266,-5.02612 -0.22417,-9.67287 -0.4033,-13.72299 -0.25019,-5.61299 -1.43909,-10.74105 -0.89969,-15.32667 0.06,-0.5545 0.7836,-3.1257 1.73422,-5.76291 0.94972,-2.6371 2.13412,-5.58032 3.12988,-7.83137 2.2456,-5.07521 4.87269,-9.99642 7.87937,-14.63957 3.31581,-5.1211 7.01451,-10.00159 11.11703,-14.46764 6.23482,-6.78738 12.80711,-13.26685 20.16929,-18.44749 8.98751,-6.32507 18.93285,-11.45871 29.23546,-15.44861 7.93362,-3.07205 16.36181,-5.09313 24.86805,-6.41407 7.6368,-1.18098 15.4305,-1.63204 23.14085,-1.28849 z"
       id="path4584"
       inkscape:connector-curvature="0" />
  </g>
</svg>
